<svg xmlns="http://www.w3.org/2000/svg" version="1.1" xmlns:xlink="http://www.w3.org/1999/xlink" width="34" height="40"><svg width="34" height="40" viewBox="0 0 34 40" fill="none" xmlns="http://www.w3.org/2000/svg">
<path fill-rule="evenodd" clip-rule="evenodd" d="M8.34355 7.21955C8.28856 8.73801 8.5753 11.4264 12.597 14.6048C15.9864 17.2837 18.9818 20.2538 19.8785 24.0303C20.6747 27.3821 20.1697 37.0742 13.9864 33.5777C10.9635 31.869 6.82901 28.6323 7.08433 23.816C7.08433 23.816 7.21283 22.5787 6.63148 22.5293C6.05182 22.4799 4.6557 28.9623 10.619 34.0967C16.5806 39.2312 26.1134 38.2952 29.9426 35.2746C29.9426 35.2746 30.7029 34.6051 30.9398 34.7011C31.0458 34.7426 30.8606 35.4216 29.9005 36.1331C11.4113 49.8397 -12.1949 24.0326 7.3391 6.68083C8.76216 5.41713 8.38957 5.94799 8.34355 7.21955Z" fill="#163A34"></path>
<path fill-rule="evenodd" clip-rule="evenodd" d="M22.673 1.43301C22.8968 3.15517 22.8581 6.22014 18.631 10.0427C17.5755 10.9972 16.5621 11.9786 15.6424 13.001C15.5705 13.0953 14.8697 14.0751 15.8999 15.2535C16.8735 16.3685 23.7094 22.6039 21.9076 28.3815C21.4042 29.997 22.2252 29.2137 22.6898 28.7344C24.7756 26.5824 26.3877 23.7183 25.8704 20.2089C25.8704 20.2089 25.5943 18.8111 26.2474 18.723C26.9012 18.6372 29.1755 25.9225 22.9547 32.0676C22.2976 32.7163 21.5871 33.2898 20.8391 33.7932C20.8391 33.7932 20.5485 34.1428 20.8419 34.42C20.9042 34.4789 21.3543 34.6158 21.9283 34.3582C37.8261 27.2092 36.214 10.4461 23.7554 0.768057C22.0058 -0.590477 22.4855 -0.00800906 22.673 1.43301Z" fill="#FE9F6B"></path>
</svg><style>@media (prefers-color-scheme: light) { :root { filter: none; } }
@media (prefers-color-scheme: dark) { :root { filter: none; } }
</style></svg>